<mxfile host="app.diagrams.net" modified="2021-02-12T23:56:13.032Z" agent="5.0 (Macintosh; Intel Mac OS X 10_14_3) AppleWebKit/537.36 (KHTML, like Gecko) Chrome/88.0.4324.146 Safari/537.36" etag="ZvUQNOAiJ2xepoP60moF" version="14.3.0" type="github">
  <diagram name="Page-1" id="bd83a815-5ea8-2e97-e5ec-87c9f400f2fa">
    <mxGraphModel dx="946" dy="495" grid="1" gridSize="10" guides="1" tooltips="1" connect="1" arrows="1" fold="1" page="1" pageScale="1.5" pageWidth="1169" pageHeight="826" math="0" shadow="0">
      <root>
        <mxCell id="0" style=";html=1;" />
        <mxCell id="1" style=";html=1;" parent="0" />
        <mxCell id="4hUw0P1e5kC0Aczj4ooU-27" value="" style="shape=table;html=1;whiteSpace=wrap;startSize=0;container=1;collapsible=0;childLayout=tableLayout;fillColor=#d5e8d4;strokeColor=#82b366;labelBackgroundColor=none;shadow=0;rounded=1;sketch=1;fontSize=16;fontStyle=1;dashed=1;" parent="1" vertex="1">
          <mxGeometry x="790" y="450" width="950" height="320" as="geometry" />
        </mxCell>
        <mxCell id="4hUw0P1e5kC0Aczj4ooU-28" value="" style="shape=partialRectangle;html=1;whiteSpace=wrap;collapsible=0;dropTarget=0;pointerEvents=0;fillColor=none;top=0;left=0;bottom=0;right=0;points=[[0,0.5],[1,0.5]];portConstraint=eastwest;strokeColor=#788AA3;labelBackgroundColor=none;sketch=1;fontSize=16;fontStyle=1;" parent="4hUw0P1e5kC0Aczj4ooU-27" vertex="1">
          <mxGeometry width="950" height="53" as="geometry" />
        </mxCell>
        <mxCell id="4hUw0P1e5kC0Aczj4ooU-29" value="&lt;span style=&quot;font-family: &amp;quot;open sans&amp;quot;, &amp;quot;clear sans&amp;quot;, &amp;quot;helvetica neue&amp;quot;, helvetica, arial, sans-serif; font-size: 16px; text-align: left;&quot;&gt;关键字段&lt;/span&gt;" style="shape=partialRectangle;html=1;whiteSpace=wrap;connectable=0;overflow=hidden;fillColor=none;top=0;left=0;bottom=0;right=0;strokeColor=#788AA3;labelBackgroundColor=none;sketch=1;fontSize=16;fontStyle=1;" parent="4hUw0P1e5kC0Aczj4ooU-28" vertex="1">
          <mxGeometry width="562" height="53" as="geometry" />
        </mxCell>
        <mxCell id="4hUw0P1e5kC0Aczj4ooU-30" value="&lt;span style=&quot;font-family: &amp;quot;open sans&amp;quot;, &amp;quot;clear sans&amp;quot;, &amp;quot;helvetica neue&amp;quot;, helvetica, arial, sans-serif; font-size: 16px; text-align: left;&quot;&gt;作用&lt;/span&gt;" style="shape=partialRectangle;html=1;whiteSpace=wrap;connectable=0;overflow=hidden;fillColor=none;top=0;left=0;bottom=0;right=0;strokeColor=#788AA3;labelBackgroundColor=none;sketch=1;fontSize=16;fontStyle=1;" parent="4hUw0P1e5kC0Aczj4ooU-28" vertex="1">
          <mxGeometry x="562" width="388" height="53" as="geometry" />
        </mxCell>
        <mxCell id="4hUw0P1e5kC0Aczj4ooU-31" value="" style="shape=partialRectangle;html=1;whiteSpace=wrap;collapsible=0;dropTarget=0;pointerEvents=0;fillColor=none;top=0;left=0;bottom=0;right=0;points=[[0,0.5],[1,0.5]];portConstraint=eastwest;strokeColor=#788AA3;labelBackgroundColor=none;fontSize=16;sketch=1;fontStyle=1;" parent="4hUw0P1e5kC0Aczj4ooU-27" vertex="1">
          <mxGeometry y="53" width="950" height="54" as="geometry" />
        </mxCell>
        <mxCell id="4hUw0P1e5kC0Aczj4ooU-32" value="&lt;div class=&quot;header-name&quot; style=&quot;font-family: &amp;quot;.sfnsdisplay-regular&amp;quot;, &amp;quot;helvetica neue&amp;quot;, &amp;quot;lucida grande&amp;quot;, sans-serif; font-size: 16px; text-align: left; box-sizing: border-box; min-width: 0px; min-height: 0px; display: inline-block; margin-right: 0.25em; vertical-align: top;&quot;&gt;Access-Control-Allow-Headers:&lt;/div&gt;&lt;span class=&quot;header-separator&quot; style=&quot;font-family: &amp;quot;.sfnsdisplay-regular&amp;quot;, &amp;quot;helvetica neue&amp;quot;, &amp;quot;lucida grande&amp;quot;, sans-serif; font-size: 16px; text-align: left; box-sizing: border-box; min-width: 0px; min-height: 0px;&quot;&gt;&lt;/span&gt;&lt;div class=&quot;header-value source-code&quot; style=&quot;text-align: left; box-sizing: border-box; min-width: 0px; min-height: 0px; font-family: menlo, monospace; display: inline; margin-right: 1em; word-break: break-all; margin-top: 1px; font-size: 16px;&quot;&gt;Range&lt;/div&gt;" style="shape=partialRectangle;html=1;whiteSpace=wrap;connectable=0;overflow=hidden;fillColor=none;top=0;left=0;bottom=0;right=0;strokeColor=#788AA3;labelBackgroundColor=none;fontSize=16;sketch=1;fontStyle=1;" parent="4hUw0P1e5kC0Aczj4ooU-31" vertex="1">
          <mxGeometry width="562" height="54" as="geometry" />
        </mxCell>
        <mxCell id="4hUw0P1e5kC0Aczj4ooU-33" value="&lt;span style=&quot;font-family: &amp;#34;open sans&amp;#34; , &amp;#34;clear sans&amp;#34; , &amp;#34;helvetica neue&amp;#34; , &amp;#34;helvetica&amp;#34; , &amp;#34;arial&amp;#34; , sans-serif ; font-size: 16px ; text-align: left&quot;&gt;指明了实际调用中允许携带的首部字段&lt;/span&gt;" style="shape=partialRectangle;html=1;whiteSpace=wrap;connectable=0;overflow=hidden;fillColor=none;top=0;left=0;bottom=0;right=0;strokeColor=#788AA3;labelBackgroundColor=none;fontSize=16;sketch=1;fontStyle=1;" parent="4hUw0P1e5kC0Aczj4ooU-31" vertex="1">
          <mxGeometry x="562" width="388" height="54" as="geometry" />
        </mxCell>
        <mxCell id="4hUw0P1e5kC0Aczj4ooU-34" value="" style="shape=partialRectangle;html=1;whiteSpace=wrap;collapsible=0;dropTarget=0;pointerEvents=0;fillColor=none;top=0;left=0;bottom=0;right=0;points=[[0,0.5],[1,0.5]];portConstraint=eastwest;strokeColor=#788AA3;labelBackgroundColor=none;fontSize=16;sketch=1;fontStyle=1;" parent="4hUw0P1e5kC0Aczj4ooU-27" vertex="1">
          <mxGeometry y="107" width="950" height="54" as="geometry" />
        </mxCell>
        <mxCell id="4hUw0P1e5kC0Aczj4ooU-35" value="&lt;div style=&quot;font-family: &amp;quot;menlo&amp;quot; , &amp;quot;monaco&amp;quot; , &amp;quot;courier new&amp;quot; , monospace ; font-size: 16px ; line-height: 21px&quot;&gt;&lt;div class=&quot;header-name&quot; style=&quot;font-family: &amp;quot;.sfnsdisplay-regular&amp;quot;, &amp;quot;helvetica neue&amp;quot;, &amp;quot;lucida grande&amp;quot;, sans-serif; font-size: 16px; text-align: left; box-sizing: border-box; min-width: 0px; min-height: 0px; display: inline-block; margin-right: 0.25em; vertical-align: top;&quot;&gt;Access-Control-Allow-Methods:&lt;/div&gt;&lt;span class=&quot;header-separator&quot; style=&quot;font-family: &amp;quot;.sfnsdisplay-regular&amp;quot;, &amp;quot;helvetica neue&amp;quot;, &amp;quot;lucida grande&amp;quot;, sans-serif; font-size: 16px; text-align: left; box-sizing: border-box; min-width: 0px; min-height: 0px;&quot;&gt;&lt;/span&gt;&lt;div class=&quot;header-value source-code&quot; style=&quot;font-size: 16px; text-align: left; box-sizing: border-box; min-width: 0px; min-height: 0px; font-family: menlo, monospace; display: inline; margin-right: 1em; word-break: break-all; margin-top: 1px;&quot;&gt;GET,OPTIONS,HEAD&lt;/div&gt;&lt;br style=&quot;font-size: 16px;&quot;&gt;&lt;/div&gt;" style="shape=partialRectangle;html=1;whiteSpace=wrap;connectable=0;overflow=hidden;fillColor=none;top=0;left=0;bottom=0;right=0;strokeColor=#788AA3;labelBackgroundColor=none;fontSize=16;sketch=1;fontStyle=1;" parent="4hUw0P1e5kC0Aczj4ooU-34" vertex="1">
          <mxGeometry width="562" height="54" as="geometry" />
        </mxCell>
        <mxCell id="4hUw0P1e5kC0Aczj4ooU-36" value="&lt;span style=&quot;font-size: 16px; text-align: left;&quot;&gt;服务器允许客户端使用什么方法发起请求&lt;/span&gt;" style="shape=partialRectangle;html=1;whiteSpace=wrap;connectable=0;overflow=hidden;fillColor=none;top=0;left=0;bottom=0;right=0;strokeColor=#788AA3;labelBackgroundColor=none;fontSize=16;sketch=1;fontStyle=1;" parent="4hUw0P1e5kC0Aczj4ooU-34" vertex="1">
          <mxGeometry x="562" width="388" height="54" as="geometry" />
        </mxCell>
        <mxCell id="tLYgwjl-dfper2AhRyFg-3" value="" style="shape=partialRectangle;html=1;whiteSpace=wrap;collapsible=0;dropTarget=0;pointerEvents=0;fillColor=none;top=0;left=0;bottom=0;right=0;points=[[0,0.5],[1,0.5]];portConstraint=eastwest;strokeColor=#788AA3;labelBackgroundColor=none;fontSize=16;sketch=1;fontStyle=1;" parent="4hUw0P1e5kC0Aczj4ooU-27" vertex="1">
          <mxGeometry y="161" width="950" height="53" as="geometry" />
        </mxCell>
        <mxCell id="tLYgwjl-dfper2AhRyFg-4" value="&lt;div style=&quot;font-family: &amp;quot;menlo&amp;quot; , &amp;quot;monaco&amp;quot; , &amp;quot;courier new&amp;quot; , monospace ; font-size: 16px ; line-height: 21px&quot;&gt;&lt;div class=&quot;header-name&quot; style=&quot;font-family: &amp;quot;.sfnsdisplay-regular&amp;quot;, &amp;quot;helvetica neue&amp;quot;, &amp;quot;lucida grande&amp;quot;, sans-serif; font-size: 16px; text-align: left; box-sizing: border-box; min-width: 0px; min-height: 0px; display: inline-block; margin-right: 0.25em; vertical-align: top;&quot;&gt;Access-Control-Allow-Origin:&lt;/div&gt;&lt;span class=&quot;header-separator&quot; style=&quot;font-family: &amp;quot;.sfnsdisplay-regular&amp;quot;, &amp;quot;helvetica neue&amp;quot;, &amp;quot;lucida grande&amp;quot;, sans-serif; font-size: 16px; text-align: left; box-sizing: border-box; min-width: 0px; min-height: 0px;&quot;&gt;&lt;/span&gt;&lt;div class=&quot;header-value source-code&quot; style=&quot;font-size: 16px; text-align: left; box-sizing: border-box; min-width: 0px; min-height: 0px; font-family: menlo, monospace; display: inline; margin-right: 1em; word-break: break-all; margin-top: 1px;&quot;&gt;https://www.bilibili.com&lt;/div&gt;&lt;br style=&quot;font-size: 16px;&quot;&gt;&lt;/div&gt;" style="shape=partialRectangle;html=1;whiteSpace=wrap;connectable=0;overflow=hidden;fillColor=none;top=0;left=0;bottom=0;right=0;strokeColor=#788AA3;labelBackgroundColor=none;fontSize=16;sketch=1;fontStyle=1;" parent="tLYgwjl-dfper2AhRyFg-3" vertex="1">
          <mxGeometry width="562" height="53" as="geometry" />
        </mxCell>
        <mxCell id="tLYgwjl-dfper2AhRyFg-5" value="&lt;span style=&quot;font-size: 16px; text-align: left;&quot;&gt;允许跨域请求的域名，如果要允许所有域名则设置为 *&lt;/span&gt;" style="shape=partialRectangle;html=1;whiteSpace=wrap;connectable=0;overflow=hidden;fillColor=none;top=0;left=0;bottom=0;right=0;strokeColor=#788AA3;labelBackgroundColor=none;fontSize=16;sketch=1;fontStyle=1;" parent="tLYgwjl-dfper2AhRyFg-3" vertex="1">
          <mxGeometry x="562" width="388" height="53" as="geometry" />
        </mxCell>
        <mxCell id="tLYgwjl-dfper2AhRyFg-19" value="" style="shape=partialRectangle;html=1;whiteSpace=wrap;collapsible=0;dropTarget=0;pointerEvents=0;fillColor=none;top=0;left=0;bottom=0;right=0;points=[[0,0.5],[1,0.5]];portConstraint=eastwest;strokeColor=#788AA3;labelBackgroundColor=none;fontSize=16;sketch=1;fontStyle=1;" parent="4hUw0P1e5kC0Aczj4ooU-27" vertex="1">
          <mxGeometry y="214" width="950" height="53" as="geometry" />
        </mxCell>
        <mxCell id="tLYgwjl-dfper2AhRyFg-20" value="&lt;div style=&quot;font-family: &amp;quot;menlo&amp;quot; , &amp;quot;monaco&amp;quot; , &amp;quot;courier new&amp;quot; , monospace ; font-size: 16px ; line-height: 21px&quot;&gt;&lt;div class=&quot;header-name&quot; style=&quot;font-family: &amp;quot;.sfnsdisplay-regular&amp;quot;, &amp;quot;helvetica neue&amp;quot;, &amp;quot;lucida grande&amp;quot;, sans-serif; font-size: 16px; text-align: left; box-sizing: border-box; min-width: 0px; min-height: 0px; display: inline-block; margin-right: 0.25em; vertical-align: top;&quot;&gt;Access-Control-Expose-Headers:&lt;/div&gt;&lt;span class=&quot;header-separator&quot; style=&quot;font-family: &amp;quot;.sfnsdisplay-regular&amp;quot;, &amp;quot;helvetica neue&amp;quot;, &amp;quot;lucida grande&amp;quot;, sans-serif; font-size: 16px; text-align: left; box-sizing: border-box; min-width: 0px; min-height: 0px;&quot;&gt;&lt;/span&gt;&lt;div class=&quot;header-value source-code&quot; style=&quot;font-size: 16px; text-align: left; box-sizing: border-box; min-width: 0px; min-height: 0px; font-family: menlo, monospace; display: inline; margin-right: 1em; word-break: break-all; margin-top: 1px;&quot;&gt;Content-Length,Content-Range&lt;/div&gt;&lt;br style=&quot;font-size: 16px;&quot;&gt;&lt;/div&gt;" style="shape=partialRectangle;html=1;whiteSpace=wrap;connectable=0;overflow=hidden;fillColor=none;top=0;left=0;bottom=0;right=0;strokeColor=#788AA3;labelBackgroundColor=none;fontSize=16;sketch=1;fontStyle=1;" parent="tLYgwjl-dfper2AhRyFg-19" vertex="1">
          <mxGeometry width="562" height="53" as="geometry" />
        </mxCell>
        <mxCell id="tLYgwjl-dfper2AhRyFg-21" value="&lt;span style=&quot;font-size: 16px; text-align: left;&quot;&gt;服务器允许客户端在请求中加入什么Header信息&lt;/span&gt;" style="shape=partialRectangle;html=1;whiteSpace=wrap;connectable=0;overflow=hidden;fillColor=none;top=0;left=0;bottom=0;right=0;strokeColor=#788AA3;labelBackgroundColor=none;fontSize=16;sketch=1;fontStyle=1;" parent="tLYgwjl-dfper2AhRyFg-19" vertex="1">
          <mxGeometry x="562" width="388" height="53" as="geometry" />
        </mxCell>
        <mxCell id="tLYgwjl-dfper2AhRyFg-38" value="" style="shape=partialRectangle;html=1;whiteSpace=wrap;collapsible=0;dropTarget=0;pointerEvents=0;fillColor=none;top=0;left=0;bottom=0;right=0;points=[[0,0.5],[1,0.5]];portConstraint=eastwest;strokeColor=#788AA3;labelBackgroundColor=none;fontSize=16;sketch=1;fontStyle=1;" parent="4hUw0P1e5kC0Aczj4ooU-27" vertex="1">
          <mxGeometry y="267" width="950" height="53" as="geometry" />
        </mxCell>
        <mxCell id="tLYgwjl-dfper2AhRyFg-39" value="&lt;div style=&quot;font-family: &amp;quot;menlo&amp;quot; , &amp;quot;monaco&amp;quot; , &amp;quot;courier new&amp;quot; , monospace ; font-size: 16px ; line-height: 21px&quot;&gt;&lt;div class=&quot;header-name&quot; style=&quot;font-family: &amp;quot;.sfnsdisplay-regular&amp;quot;, &amp;quot;helvetica neue&amp;quot;, &amp;quot;lucida grande&amp;quot;, sans-serif; font-size: 16px; text-align: left; box-sizing: border-box; min-width: 0px; min-height: 0px; display: inline-block; margin-right: 0.25em; vertical-align: top;&quot;&gt;Access-Control-Max-Age:&lt;/div&gt;&lt;span class=&quot;header-separator&quot; style=&quot;font-family: &amp;quot;.sfnsdisplay-regular&amp;quot;, &amp;quot;helvetica neue&amp;quot;, &amp;quot;lucida grande&amp;quot;, sans-serif; font-size: 16px; text-align: left; box-sizing: border-box; min-width: 0px; min-height: 0px;&quot;&gt;&lt;/span&gt;&lt;div class=&quot;header-value source-code&quot; style=&quot;font-size: 16px; text-align: left; box-sizing: border-box; min-width: 0px; min-height: 0px; font-family: menlo, monospace; display: inline; margin-right: 1em; word-break: break-all; margin-top: 1px;&quot;&gt;21600&lt;/div&gt;&lt;br style=&quot;font-size: 16px;&quot;&gt;&lt;/div&gt;" style="shape=partialRectangle;html=1;whiteSpace=wrap;connectable=0;overflow=hidden;fillColor=none;top=0;left=0;bottom=0;right=0;strokeColor=#788AA3;labelBackgroundColor=none;fontSize=16;sketch=1;fontStyle=1;" parent="tLYgwjl-dfper2AhRyFg-38" vertex="1">
          <mxGeometry width="562" height="53" as="geometry" />
        </mxCell>
        <mxCell id="tLYgwjl-dfper2AhRyFg-40" value="&lt;span style=&quot;font-size: 16px; text-align: left;&quot;&gt;预检请求的结果能够被缓存多久&lt;/span&gt;" style="shape=partialRectangle;html=1;whiteSpace=wrap;connectable=0;overflow=hidden;fillColor=none;top=0;left=0;bottom=0;right=0;strokeColor=#788AA3;labelBackgroundColor=none;fontSize=16;sketch=1;fontStyle=1;" parent="tLYgwjl-dfper2AhRyFg-38" vertex="1">
          <mxGeometry x="562" width="388" height="53" as="geometry" />
        </mxCell>
      </root>
    </mxGraphModel>
  </diagram>
</mxfile>
